<svg width="100%" viewBox="0 0 680 414.83" role="img" xmlns="http://www.w3.org/2000/svg" style=""><defs><mask id="imagine-text-gaps-akcnt6" maskUnits="userSpaceOnUse"><rect x="0" y="0" width="680" height="414.83" fill="white"/><rect x="28" y="50.99995422363281" width="59.943626403808594" height="18.000059127807617" fill="black" rx="2"/><rect x="28" y="100.99995422363281" width="61.271968841552734" height="18.000062942504883" fill="black" rx="2"/><rect x="28" y="165.99996948242188" width="42.644474029541016" height="18.000062942504883" fill="black" rx="2"/><rect x="534.7184448242188" y="18.99995231628418" width="89.95154571533203" height="18.00006103515625" fill="black" rx="2"/><rect x="131.96771240234375" y="204.9999542236328" width="466.38824462890625" height="18.000062942504883" fill="black" rx="2"/><rect x="28" y="250.9999542236328" width="59.943626403808594" height="18.000062942504883" fill="black" rx="2"/><rect x="28" y="300.9999694824219" width="61.271968841552734" height="18.000062942504883" fill="black" rx="2"/><rect x="28" y="360.9999694824219" width="42.644474029541016" height="18.000062942504883" fill="black" rx="2"/><rect x="552.046630859375" y="238.99996948242188" width="72.61271667480469" height="18.000062942504883" fill="black" rx="2"/><rect x="145.2880859375" y="388.9999694824219" width="438.423828125" height="18.000062942504883" fill="black" rx="2"/></mask></defs>
<title style="fill:rgb(0, 0, 0);stroke:none;color:rgb(0, 0, 0);stroke-width:1px;stroke-linecap:butt;stroke-linejoin:miter;opacity:1;font-family:&quot;Anthropic Sans&quot;, -apple-system, BlinkMacSystemFont, &quot;Segoe UI&quot;, sans-serif;font-size:16px;font-weight:400;text-anchor:start;dominant-baseline:auto">B7-B8 Phasenkopplung</title>
<desc style="fill:rgb(0, 0, 0);stroke:none;color:rgb(0, 0, 0);stroke-width:1px;stroke-linecap:butt;stroke-linejoin:miter;opacity:1;font-family:&quot;Anthropic Sans&quot;, -apple-system, BlinkMacSystemFont, &quot;Segoe UI&quot;, sans-serif;font-size:16px;font-weight:400;text-anchor:start;dominant-baseline:auto">Zwei Zustände der raphe-kortikalen Kopplung: oben phasen-gelockt mit klarer Trägerwelle, unten fragmentiert mit zerfallender Interferenz.</desc>

<circle cx="22" cy="60" r="3.5" fill="#7F77DD" style="fill:rgb(127, 119, 221);stroke:none;color:rgb(0, 0, 0);stroke-width:1px;stroke-linecap:butt;stroke-linejoin:miter;opacity:1;font-family:&quot;Anthropic Sans&quot;, -apple-system, BlinkMacSystemFont, &quot;Segoe UI&quot;, sans-serif;font-size:16px;font-weight:400;text-anchor:start;dominant-baseline:auto"/>
<text x="32" y="64" style="fill:rgb(61, 61, 58);stroke:none;color:rgb(0, 0, 0);stroke-width:1px;stroke-linecap:butt;stroke-linejoin:miter;opacity:1;font-family:&quot;Anthropic Sans&quot;, -apple-system, BlinkMacSystemFont, &quot;Segoe UI&quot;, sans-serif;font-size:12px;font-weight:400;text-anchor:start;dominant-baseline:auto">B7 (DRN)</text>
<circle cx="22" cy="110" r="3.5" fill="#1D9E75" style="fill:rgb(29, 158, 117);stroke:none;color:rgb(0, 0, 0);stroke-width:1px;stroke-linecap:butt;stroke-linejoin:miter;opacity:1;font-family:&quot;Anthropic Sans&quot;, -apple-system, BlinkMacSystemFont, &quot;Segoe UI&quot;, sans-serif;font-size:16px;font-weight:400;text-anchor:start;dominant-baseline:auto"/>
<text x="32" y="114" style="fill:rgb(61, 61, 58);stroke:none;color:rgb(0, 0, 0);stroke-width:1px;stroke-linecap:butt;stroke-linejoin:miter;opacity:1;font-family:&quot;Anthropic Sans&quot;, -apple-system, BlinkMacSystemFont, &quot;Segoe UI&quot;, sans-serif;font-size:12px;font-weight:400;text-anchor:start;dominant-baseline:auto">B8 (MRN)</text>
<circle cx="22" cy="175" r="3.5" fill="#BA7517" style="fill:rgb(186, 117, 23);stroke:none;color:rgb(0, 0, 0);stroke-width:1px;stroke-linecap:butt;stroke-linejoin:miter;opacity:1;font-family:&quot;Anthropic Sans&quot;, -apple-system, BlinkMacSystemFont, &quot;Segoe UI&quot;, sans-serif;font-size:16px;font-weight:400;text-anchor:start;dominant-baseline:auto"/>
<text x="32" y="179" style="fill:rgb(61, 61, 58);stroke:none;color:rgb(0, 0, 0);stroke-width:1px;stroke-linecap:butt;stroke-linejoin:miter;opacity:1;font-family:&quot;Anthropic Sans&quot;, -apple-system, BlinkMacSystemFont, &quot;Segoe UI&quot;, sans-serif;font-size:12px;font-weight:400;text-anchor:start;dominant-baseline:auto">Kortex</text>

<text x="620" y="32" text-anchor="end" style="font-weight:500;fill:rgb(61, 61, 58);stroke:none;color:rgb(0, 0, 0);stroke-width:1px;stroke-linecap:butt;stroke-linejoin:miter;opacity:1;font-family:&quot;Anthropic Sans&quot;, -apple-system, BlinkMacSystemFont, &quot;Segoe UI&quot;, sans-serif;font-size:12px;font-weight:500;text-anchor:end;dominant-baseline:auto">phasen-gelockt</text>

<line x1="100" y1="60" x2="620" y2="60" stroke="var(--color-border-tertiary)" stroke-width="0.5" style="fill:rgb(0, 0, 0);stroke:rgba(31, 30, 29, 0.15);color:rgb(0, 0, 0);stroke-width:0.5px;stroke-linecap:butt;stroke-linejoin:miter;opacity:1;font-family:&quot;Anthropic Sans&quot;, -apple-system, BlinkMacSystemFont, &quot;Segoe UI&quot;, sans-serif;font-size:16px;font-weight:400;text-anchor:start;dominant-baseline:auto"/>
<line x1="100" y1="110" x2="620" y2="110" stroke="var(--color-border-tertiary)" stroke-width="0.5" style="fill:rgb(0, 0, 0);stroke:rgba(31, 30, 29, 0.15);color:rgb(0, 0, 0);stroke-width:0.5px;stroke-linecap:butt;stroke-linejoin:miter;opacity:1;font-family:&quot;Anthropic Sans&quot;, -apple-system, BlinkMacSystemFont, &quot;Segoe UI&quot;, sans-serif;font-size:16px;font-weight:400;text-anchor:start;dominant-baseline:auto"/>
<line x1="100" y1="175" x2="620" y2="175" stroke="var(--color-border-tertiary)" stroke-width="0.5" style="fill:rgb(0, 0, 0);stroke:rgba(31, 30, 29, 0.15);color:rgb(0, 0, 0);stroke-width:0.5px;stroke-linecap:butt;stroke-linejoin:miter;opacity:1;font-family:&quot;Anthropic Sans&quot;, -apple-system, BlinkMacSystemFont, &quot;Segoe UI&quot;, sans-serif;font-size:16px;font-weight:400;text-anchor:start;dominant-baseline:auto"/>

<path d="M 100,60 L 104.3,65.3 L 108.7,69.8 L 113,72.9 L 117.3,74 L 121.7,73 L 126,70.1 L 130.3,65.7 L 134.7,60.4 L 139,55.1 L 143.3,50.5 L 147.7,47.3 L 152,46 L 156.3,46.8 L 160.7,49.6 L 165,53.9 L 169.3,59.2 L 173.7,64.5 L 178,69.2 L 182.3,72.5 L 186.7,74 L 191,73.3 L 195.3,70.7 L 199.7,66.4 L 204,61.3 L 208.3,55.9 L 212.7,51.1 L 217,47.7 L 221.3,46.1 L 225.7,46.6 L 230,49.1 L 234.3,53.2 L 238.7,58.3 L 243,63.7 L 247.3,68.6 L 251.7,72.1 L 256,73.9 L 260.3,73.5 L 264.7,71.2 L 269,67.2 L 273.3,62.1 L 277.7,56.7 L 282,51.8 L 286.3,48.1 L 290.7,46.2 L 295,46.4 L 299.3,48.6 L 303.7,52.5 L 308,57.5 L 312.3,62.9 L 316.7,67.9 L 321,71.7 L 325.3,73.7 L 329.7,73.7 L 334,71.7 L 338.3,67.9 L 342.7,62.9 L 347,57.5 L 351.3,52.5 L 355.7,48.6 L 360,46.4 L 364.3,46.2 L 368.7,48.1 L 373,51.8 L 377.3,56.7 L 381.7,62.1 L 386,67.2 L 390.3,71.2 L 394.7,73.5 L 399,73.9 L 403.3,72.1 L 407.7,68.6 L 412,63.7 L 416.3,58.3 L 420.7,53.2 L 425,49.1 L 429.3,46.6 L 433.7,46.1 L 438,47.7 L 442.3,51.1 L 446.7,55.9 L 451,61.3 L 455.3,66.4 L 459.7,70.7 L 464,73.3 L 468.3,74 L 472.7,72.5 L 477,69.2 L 481.3,64.5 L 485.7,59.2 L 490,53.9 L 494.3,49.6 L 498.7,46.8 L 503,46 L 507.3,47.3 L 511.7,50.5 L 516,55.1 L 520.3,60.4 L 524.7,65.7 L 529,70.1 L 533.3,73 L 537.7,74 L 542,72.9 L 546.3,69.8 L 550.7,65.3 L 555,60 L 559.3,54.7 L 563.7,50.2 L 568,47.1 L 572.3,46 L 576.7,47 L 581,49.9 L 585.3,54.3 L 589.7,59.6 L 594,64.9 L 598.3,69.5 L 602.7,72.7 L 607,74 L 611.3,73.2 L 615.7,70.4 L 620,66.1" stroke="#7F77DD" stroke-width="1.5" fill="none" stroke-linejoin="round" style="fill:none;stroke:rgb(127, 119, 221);color:rgb(0, 0, 0);stroke-width:1.5px;stroke-linecap:butt;stroke-linejoin:round;opacity:1;font-family:&quot;Anthropic Sans&quot;, -apple-system, BlinkMacSystemFont, &quot;Segoe UI&quot;, sans-serif;font-size:16px;font-weight:400;text-anchor:start;dominant-baseline:auto"/>

<path d="M 100,122.1 L 104.3,123.9 L 108.7,123.5 L 113,121.2 L 117.3,117.2 L 121.7,112.1 L 126,106.7 L 130.3,101.8 L 134.7,98.1 L 139,96.2 L 143.3,96.4 L 147.7,98.6 L 152,102.5 L 156.3,107.5 L 160.7,112.9 L 165,117.9 L 169.3,121.7 L 173.7,123.7 L 178,123.7 L 182.3,121.7 L 186.7,117.9 L 191,112.9 L 195.3,107.5 L 199.7,102.5 L 204,98.6 L 208.3,96.4 L 212.7,96.2 L 217,98.1 L 221.3,101.8 L 225.7,106.7 L 230,112.1 L 234.3,117.2 L 238.7,121.2 L 243,123.5 L 247.3,123.9 L 251.7,122.1 L 256,118.6 L 260.3,113.7 L 264.7,108.3 L 269,103.2 L 273.3,99.1 L 277.7,96.6 L 282,96.1 L 286.3,97.7 L 290.7,101.1 L 295,105.9 L 299.3,111.3 L 303.7,116.4 L 308,120.7 L 312.3,123.3 L 316.7,124 L 321,122.5 L 325.3,119.2 L 329.7,114.5 L 334,109.2 L 338.3,103.9 L 342.7,99.6 L 347,96.8 L 351.3,96 L 355.7,97.3 L 360,100.5 L 364.3,105.1 L 368.7,110.4 L 373,115.7 L 377.3,120.1 L 381.7,123 L 386,124 L 390.3,122.9 L 394.7,119.8 L 399,115.3 L 403.3,110 L 407.7,104.7 L 412,100.2 L 416.3,97.1 L 420.7,96 L 425,97 L 429.3,99.9 L 433.7,104.3 L 438,109.6 L 442.3,114.9 L 446.7,119.5 L 451,122.7 L 455.3,124 L 459.7,123.2 L 464,120.4 L 468.3,116.1 L 472.7,110.8 L 477,105.5 L 481.3,100.8 L 485.7,97.5 L 490,96 L 494.3,96.7 L 498.7,99.3 L 503,103.6 L 507.3,108.7 L 511.7,114.1 L 516,118.9 L 520.3,122.3 L 524.7,123.9 L 529,123.4 L 533.3,120.9 L 537.7,116.8 L 542,111.7 L 546.3,106.3 L 550.7,101.4 L 555,97.9 L 559.3,96.1 L 563.7,96.5 L 568,98.8 L 572.3,102.8 L 576.7,107.9 L 581,113.3 L 585.3,118.2 L 589.7,121.9 L 594,123.8 L 598.3,123.6 L 602.7,121.4 L 607,117.5 L 611.3,112.5 L 615.7,107.1 L 620,102.1" stroke="#1D9E75" stroke-width="1.5" fill="none" stroke-linejoin="round" style="fill:none;stroke:rgb(29, 158, 117);color:rgb(0, 0, 0);stroke-width:1.5px;stroke-linecap:butt;stroke-linejoin:round;opacity:1;font-family:&quot;Anthropic Sans&quot;, -apple-system, BlinkMacSystemFont, &quot;Segoe UI&quot;, sans-serif;font-size:16px;font-weight:400;text-anchor:start;dominant-baseline:auto"/>

<path d="M 100,186 L 108.7,196.2 L 117.3,194.2 L 126,181.2 L 134.7,164.6 L 143.3,154 L 152,155.5 L 160.7,168.2 L 169.3,184.8 L 178,195.8 L 186.7,194.8 L 195.3,182.4 L 204,165.8 L 212.7,154.4 L 221.3,154.9 L 230,167 L 238.7,183.6 L 247.3,195.4 L 256,195.4 L 264.7,183.6 L 273.3,167 L 282,154.9 L 290.7,154.4 L 299.3,165.8 L 308,182.4 L 316.7,194.8 L 325.3,195.8 L 334,184.8 L 342.7,168.2 L 351.3,155.5 L 360,154 L 368.7,164.6 L 377.3,181.2 L 386,194.2 L 394.7,196.2 L 403.3,186 L 412,169.5 L 420.7,156.1 L 429.3,153.6 L 438,163.4 L 446.7,179.9 L 455.3,193.5 L 464,196.5 L 472.7,187.1 L 481.3,170.7 L 490,156.8 L 498.7,153.4 L 507.3,162.3 L 516,178.6 L 524.7,192.8 L 533.3,196.8 L 542,188.2 L 550.7,172 L 559.3,157.6 L 568,153.2 L 576.7,161.3 L 585.3,177.3 L 594,192 L 602.7,196.9 L 611.3,189.2 L 620,173.4" stroke="#BA7517" stroke-width="2.2" fill="none" stroke-linejoin="round" style="fill:none;stroke:rgb(186, 117, 23);color:rgb(0, 0, 0);stroke-width:2.2px;stroke-linecap:butt;stroke-linejoin:round;opacity:1;font-family:&quot;Anthropic Sans&quot;, -apple-system, BlinkMacSystemFont, &quot;Segoe UI&quot;, sans-serif;font-size:16px;font-weight:400;text-anchor:start;dominant-baseline:auto"/>

<text x="365" y="218" text-anchor="middle" fill="var(--color-text-tertiary)" style="fill:rgb(61, 61, 58);stroke:none;color:rgb(0, 0, 0);stroke-width:1px;stroke-linecap:butt;stroke-linejoin:miter;opacity:1;font-family:&quot;Anthropic Sans&quot;, -apple-system, BlinkMacSystemFont, &quot;Segoe UI&quot;, sans-serif;font-size:12px;font-weight:400;text-anchor:middle;dominant-baseline:auto">B7 voraus, B8 hinterher — stabiler Offset → Kortex empfängt rhythmische Trägerwelle</text>

<line x1="40" y1="232" x2="640" y2="232" stroke="var(--color-border-tertiary)" stroke-width="0.5" stroke-dasharray="4 4" style="fill:rgb(0, 0, 0);stroke:rgba(31, 30, 29, 0.15);color:rgb(0, 0, 0);stroke-width:0.5px;stroke-dasharray:4px, 4px;stroke-linecap:butt;stroke-linejoin:miter;opacity:1;font-family:&quot;Anthropic Sans&quot;, -apple-system, BlinkMacSystemFont, &quot;Segoe UI&quot;, sans-serif;font-size:16px;font-weight:400;text-anchor:start;dominant-baseline:auto"/>

<circle cx="22" cy="260" r="3.5" fill="#7F77DD" style="fill:rgb(127, 119, 221);stroke:none;color:rgb(0, 0, 0);stroke-width:1px;stroke-linecap:butt;stroke-linejoin:miter;opacity:1;font-family:&quot;Anthropic Sans&quot;, -apple-system, BlinkMacSystemFont, &quot;Segoe UI&quot;, sans-serif;font-size:16px;font-weight:400;text-anchor:start;dominant-baseline:auto"/>
<text x="32" y="264" style="fill:rgb(61, 61, 58);stroke:none;color:rgb(0, 0, 0);stroke-width:1px;stroke-linecap:butt;stroke-linejoin:miter;opacity:1;font-family:&quot;Anthropic Sans&quot;, -apple-system, BlinkMacSystemFont, &quot;Segoe UI&quot;, sans-serif;font-size:12px;font-weight:400;text-anchor:start;dominant-baseline:auto">B7 (DRN)</text>
<circle cx="22" cy="310" r="3.5" fill="#1D9E75" style="fill:rgb(29, 158, 117);stroke:none;color:rgb(0, 0, 0);stroke-width:1px;stroke-linecap:butt;stroke-linejoin:miter;opacity:1;font-family:&quot;Anthropic Sans&quot;, -apple-system, BlinkMacSystemFont, &quot;Segoe UI&quot;, sans-serif;font-size:16px;font-weight:400;text-anchor:start;dominant-baseline:auto"/>
<text x="32" y="314" style="fill:rgb(61, 61, 58);stroke:none;color:rgb(0, 0, 0);stroke-width:1px;stroke-linecap:butt;stroke-linejoin:miter;opacity:1;font-family:&quot;Anthropic Sans&quot;, -apple-system, BlinkMacSystemFont, &quot;Segoe UI&quot;, sans-serif;font-size:12px;font-weight:400;text-anchor:start;dominant-baseline:auto">B8 (MRN)</text>
<circle cx="22" cy="370" r="3.5" fill="#BA7517" style="fill:rgb(186, 117, 23);stroke:none;color:rgb(0, 0, 0);stroke-width:1px;stroke-linecap:butt;stroke-linejoin:miter;opacity:1;font-family:&quot;Anthropic Sans&quot;, -apple-system, BlinkMacSystemFont, &quot;Segoe UI&quot;, sans-serif;font-size:16px;font-weight:400;text-anchor:start;dominant-baseline:auto"/>
<text x="32" y="374" style="fill:rgb(61, 61, 58);stroke:none;color:rgb(0, 0, 0);stroke-width:1px;stroke-linecap:butt;stroke-linejoin:miter;opacity:1;font-family:&quot;Anthropic Sans&quot;, -apple-system, BlinkMacSystemFont, &quot;Segoe UI&quot;, sans-serif;font-size:12px;font-weight:400;text-anchor:start;dominant-baseline:auto">Kortex</text>

<text x="620" y="252" text-anchor="end" style="font-weight:500;fill:rgb(61, 61, 58);stroke:none;color:rgb(0, 0, 0);stroke-width:1px;stroke-linecap:butt;stroke-linejoin:miter;opacity:1;font-family:&quot;Anthropic Sans&quot;, -apple-system, BlinkMacSystemFont, &quot;Segoe UI&quot;, sans-serif;font-size:12px;font-weight:500;text-anchor:end;dominant-baseline:auto">fragmentiert</text>

<line x1="100" y1="260" x2="620" y2="260" stroke="var(--color-border-tertiary)" stroke-width="0.5" style="fill:rgb(0, 0, 0);stroke:rgba(31, 30, 29, 0.15);color:rgb(0, 0, 0);stroke-width:0.5px;stroke-linecap:butt;stroke-linejoin:miter;opacity:1;font-family:&quot;Anthropic Sans&quot;, -apple-system, BlinkMacSystemFont, &quot;Segoe UI&quot;, sans-serif;font-size:16px;font-weight:400;text-anchor:start;dominant-baseline:auto"/>
<line x1="100" y1="310" x2="620" y2="310" stroke="var(--color-border-tertiary)" stroke-width="0.5" style="fill:rgb(0, 0, 0);stroke:rgba(31, 30, 29, 0.15);color:rgb(0, 0, 0);stroke-width:0.5px;stroke-linecap:butt;stroke-linejoin:miter;opacity:1;font-family:&quot;Anthropic Sans&quot;, -apple-system, BlinkMacSystemFont, &quot;Segoe UI&quot;, sans-serif;font-size:16px;font-weight:400;text-anchor:start;dominant-baseline:auto"/>
<line x1="100" y1="370" x2="620" y2="370" stroke="var(--color-border-tertiary)" stroke-width="0.5" style="fill:rgb(0, 0, 0);stroke:rgba(31, 30, 29, 0.15);color:rgb(0, 0, 0);stroke-width:0.5px;stroke-linecap:butt;stroke-linejoin:miter;opacity:1;font-family:&quot;Anthropic Sans&quot;, -apple-system, BlinkMacSystemFont, &quot;Segoe UI&quot;, sans-serif;font-size:16px;font-weight:400;text-anchor:start;dominant-baseline:auto"/>

<rect x="200" y="246" width="20" height="148" fill="var(--color-text-tertiary)" opacity="0.06" style="fill:rgb(115, 114, 108);stroke:none;color:rgb(0, 0, 0);stroke-width:1px;stroke-linecap:butt;stroke-linejoin:miter;opacity:0.06;font-family:&quot;Anthropic Sans&quot;, -apple-system, BlinkMacSystemFont, &quot;Segoe UI&quot;, sans-serif;font-size:16px;font-weight:400;text-anchor:start;dominant-baseline:auto"/>
<rect x="180" y="246" width="15" height="148" fill="var(--color-text-tertiary)" opacity="0.06" style="fill:rgb(115, 114, 108);stroke:none;color:rgb(0, 0, 0);stroke-width:1px;stroke-linecap:butt;stroke-linejoin:miter;opacity:0.06;font-family:&quot;Anthropic Sans&quot;, -apple-system, BlinkMacSystemFont, &quot;Segoe UI&quot;, sans-serif;font-size:16px;font-weight:400;text-anchor:start;dominant-baseline:auto"/>
<rect x="350" y="246" width="15" height="148" fill="var(--color-text-tertiary)" opacity="0.06" style="fill:rgb(115, 114, 108);stroke:none;color:rgb(0, 0, 0);stroke-width:1px;stroke-linecap:butt;stroke-linejoin:miter;opacity:0.06;font-family:&quot;Anthropic Sans&quot;, -apple-system, BlinkMacSystemFont, &quot;Segoe UI&quot;, sans-serif;font-size:16px;font-weight:400;text-anchor:start;dominant-baseline:auto"/>
<rect x="400" y="246" width="15" height="148" fill="var(--color-text-tertiary)" opacity="0.06" style="fill:rgb(115, 114, 108);stroke:none;color:rgb(0, 0, 0);stroke-width:1px;stroke-linecap:butt;stroke-linejoin:miter;opacity:0.06;font-family:&quot;Anthropic Sans&quot;, -apple-system, BlinkMacSystemFont, &quot;Segoe UI&quot;, sans-serif;font-size:16px;font-weight:400;text-anchor:start;dominant-baseline:auto"/>
<rect x="480" y="246" width="15" height="148" fill="var(--color-text-tertiary)" opacity="0.06" style="fill:rgb(115, 114, 108);stroke:none;color:rgb(0, 0, 0);stroke-width:1px;stroke-linecap:butt;stroke-linejoin:miter;opacity:0.06;font-family:&quot;Anthropic Sans&quot;, -apple-system, BlinkMacSystemFont, &quot;Segoe UI&quot;, sans-serif;font-size:16px;font-weight:400;text-anchor:start;dominant-baseline:auto"/>

<path d="M 100,260 L 105.8,266.9 L 111.6,272.1 L 117.3,274 L 123.1,272.3 L 128.9,267.3 L 134.7,260.4 L 140.4,253.4 L 146.2,248.2 L 152,246 L 157.8,247.5 L 163.6,252.3 L 169.3,259.2 L 175.1,266.2 L 180.9,271.6 L 186.7,274 L 192.4,272.6 L 198.2,268 L 201.1,260 L 218.4,260 L 221.3,247.8 L 227.1,246 L 232.9,247.9 L 238.7,253 L 244.4,259.9 L 250.2,266.9 L 256,272 L 261.8,273.5 L 267.6,272.3 L 273.3,267.4 L 279.1,260.5 L 284.9,253.5 L 290.7,248.2 L 296.4,246 L 302.2,247.5 L 308,252.3 L 313.8,259.1 L 319.6,266.1 L 325.3,271.6 L 331.1,274 L 336.9,272.7 L 342.7,268.1 L 348.4,261.3 L 354.2,254.2 L 360,248.7 L 365.8,246.1 L 371.6,247.2 L 377.3,251.6 L 383.1,258.3 L 388.9,265.4 L 394.7,271.1 L 400.4,260 L 414.9,260 L 417.8,274 L 423.6,272.6 L 429.3,267.9 L 435.1,261.1 L 440.9,254.1 L 446.7,248.6 L 452.4,246.1 L 458.2,247.2 L 464,251.8 L 469.8,258.5 L 475.6,265.6 L 481.3,271.2 L 487.1,273.9 L 492.9,272.9 L 498.7,268.6 L 504.4,261.9 L 510.2,254.8 L 516,249.1 L 521.8,246.2 L 527.6,246.9 L 533.3,251.1 L 539.1,257.6 L 544.9,264.8 L 550.7,270.7 L 556.4,273.8 L 562.2,273.2 L 568,269.2 L 573.8,262.8 L 579.6,255.6 L 585.3,249.6 L 591.1,246.3 L 596.9,248.2 L 602.7,253.4 L 608.4,260.4 L 614.2,267.3 L 620,272" stroke="#7F77DD" stroke-width="1.5" fill="none" stroke-linejoin="round" mask="url(#imagine-text-gaps-akcnt6)" style="fill:none;stroke:rgb(127, 119, 221);color:rgb(0, 0, 0);stroke-width:1.5px;stroke-linecap:butt;stroke-linejoin:round;opacity:1;font-family:&quot;Anthropic Sans&quot;, -apple-system, BlinkMacSystemFont, &quot;Segoe UI&quot;, sans-serif;font-size:16px;font-weight:400;text-anchor:start;dominant-baseline:auto"/>

<path d="M 100,322.1 L 105.8,324 L 111.6,322.2 L 117.3,317.2 L 123.1,310.3 L 128.9,303.3 L 134.7,298.1 L 140.4,296 L 146.2,297.6 L 152,302.5 L 157.8,309.3 L 163.6,316.3 L 169.3,321.7 L 175.1,324 L 180.9,310 L 192.4,310 L 195.3,317.9 L 201.1,311.1 L 206.9,304.1 L 212.7,298.6 L 218.4,296.1 L 224.2,297.2 L 230,301.8 L 235.8,308.5 L 241.6,315.6 L 247.3,321.2 L 253.1,323.9 L 258.9,322.9 L 264.7,318.6 L 270.4,311.9 L 276.2,304.8 L 282,299.1 L 287.8,296.2 L 293.6,296.9 L 299.3,301.1 L 305.1,307.6 L 310.9,314.8 L 316.7,320.7 L 322.4,323.8 L 328.2,323.2 L 334,319.2 L 339.8,312.8 L 345.6,305.6 L 351.3,310 L 362.9,310 L 365.8,299.3 L 371.6,305.1 L 377.3,312.3 L 383.1,318.8 L 388.9,323.1 L 394.7,323.8 L 400.4,321 L 406.2,315.2 L 412,308.1 L 417.8,301.5 L 423.6,297.1 L 429.3,296.1 L 435.1,298.8 L 440.9,304.4 L 446.7,311.5 L 452.4,318.2 L 458.2,322.7 L 464,323.9 L 469.8,321.5 L 475.6,316 L 481.3,310 L 492.9,310 L 495.8,319 L 501.6,323.1 L 507.3,323.8 L 513.1,320.9 L 518.9,315 L 524.7,307.9 L 530.4,301.3 L 536.2,297 L 542,296.1 L 547.8,298.9 L 553.6,304.6 L 559.3,311.7 L 565.1,318.3 L 570.9,322.8 L 576.7,323.9 L 582.4,321.4 L 588.2,315.8 L 594,308.7 L 599.8,302 L 605.6,297.4 L 611.3,296 L 617.1,298.4" stroke="#1D9E75" stroke-width="1.5" fill="none" stroke-linejoin="round" style="fill:none;stroke:rgb(29, 158, 117);color:rgb(0, 0, 0);stroke-width:1.5px;stroke-linecap:butt;stroke-linejoin:round;opacity:1;font-family:&quot;Anthropic Sans&quot;, -apple-system, BlinkMacSystemFont, &quot;Segoe UI&quot;, sans-serif;font-size:16px;font-weight:400;text-anchor:start;dominant-baseline:auto"/>

<path d="M 100,381 L 108.7,391.2 L 117.3,389.2 L 126,376.2 L 134.7,359.6 L 143.3,349 L 152,350.5 L 160.7,363.2 L 169.3,379.8 L 178,390.8 L 186.7,368.4 L 195.3,369.5 L 204,372 L 212.7,369.1 L 221.3,368.7 L 230,370 L 238.7,361.6 L 247.3,358 L 256,361.3 L 264.7,369.6 L 273.3,378.2 L 282,382 L 290.7,378.9 L 299.3,370.7 L 308,362.1 L 316.7,358 L 325.3,360.8 L 334,368.9 L 342.7,370.2 L 351.3,367.6 L 360,374.3 L 368.7,365.1 L 377.3,373.4 L 386,369.9 L 394.7,366.4 L 403.3,376.3 L 412,363.5 L 420.7,374.1 L 429.3,376.1 L 438,370.7 L 446.7,364.9 L 455.3,362 L 464,363.7 L 472.7,369 L 481.3,374.9 L 490,367.8 L 498.7,371.6 L 507.3,374.5 L 516,374.8 L 524.7,372.3 L 533.3,368.5 L 542,365.6 L 550.7,365.2 L 559.3,367.6 L 568,371.3 L 576.7,374.3 L 585.3,374.8 L 594,372.6 L 602.7,368.8 L 611.3,365.7 L 620,365.1" stroke="#BA7517" stroke-width="2.2" fill="none" stroke-linejoin="round" style="fill:none;stroke:rgb(186, 117, 23);color:rgb(0, 0, 0);stroke-width:2.2px;stroke-linecap:butt;stroke-linejoin:round;opacity:1;font-family:&quot;Anthropic Sans&quot;, -apple-system, BlinkMacSystemFont, &quot;Segoe UI&quot;, sans-serif;font-size:16px;font-weight:400;text-anchor:start;dominant-baseline:auto"/>

<text x="365" y="402" text-anchor="middle" fill="var(--color-text-tertiary)" style="fill:rgb(61, 61, 58);stroke:none;color:rgb(0, 0, 0);stroke-width:1px;stroke-linecap:butt;stroke-linejoin:miter;opacity:1;font-family:&quot;Anthropic Sans&quot;, -apple-system, BlinkMacSystemFont, &quot;Segoe UI&quot;, sans-serif;font-size:12px;font-weight:400;text-anchor:middle;dominant-baseline:auto">jeder Reset (graue Bänder) wirft den Offset weg → Trägerwelle bricht zusammen</text>
</svg>